<?xml version="1.0" encoding="UTF-8" standalone="no"?>
<!-- Created with Inkscape (http://www.inkscape.org/) -->

<svg
   xmlns:dc="http://purl.org/dc/elements/1.1/"
   xmlns:cc="http://creativecommons.org/ns#"
   xmlns:rdf="http://www.w3.org/1999/02/22-rdf-syntax-ns#"
   xmlns:svg="http://www.w3.org/2000/svg"
   xmlns="http://www.w3.org/2000/svg"
   xmlns:xlink="http://www.w3.org/1999/xlink"
   xmlns:sodipodi="http://sodipodi.sourceforge.net/DTD/sodipodi-0.dtd"
   xmlns:inkscape="http://www.inkscape.org/namespaces/inkscape"
   width="210mm"
   height="297mm"
   id="svg2"
   version="1.1"
   inkscape:version="0.91 r13725"
   sodipodi:docname="icons.svg"
   inkscape:export-filename="/home/michael/workspace/paysages3d/graphics/icons.png"
   inkscape:export-xdpi="154.89854"
   inkscape:export-ydpi="154.89854">
  <defs
     id="defs4" />
  <sodipodi:namedview
     id="base"
     pagecolor="#ffffff"
     bordercolor="#666666"
     borderopacity="1.0"
     inkscape:pageopacity="0.0"
     inkscape:pageshadow="2"
     inkscape:zoom="2.8"
     inkscape:cx="274.84974"
     inkscape:cy="462.35469"
     inkscape:document-units="px"
     inkscape:current-layer="g3986"
     showgrid="true"
     inkscape:window-width="1920"
     inkscape:window-height="1037"
     inkscape:window-x="1440"
     inkscape:window-y="20"
     inkscape:window-maximized="0"
     showguides="true"
     inkscape:snap-object-midpoints="false"
     inkscape:object-nodes="false"
     inkscape:snap-grids="true">
    <inkscape:grid
       type="xygrid"
       id="grid3004" />
  </sodipodi:namedview>
  <metadata
     id="metadata7">
    <rdf:RDF>
      <cc:Work
         rdf:about="">
        <dc:format>image/svg+xml</dc:format>
        <dc:type
           rdf:resource="http://purl.org/dc/dcmitype/StillImage" />
        <dc:title />
      </cc:Work>
    </rdf:RDF>
  </metadata>
  <g
     inkscape:label="Calque 1"
     inkscape:groupmode="layer"
     id="layer1">
    <path
       style="fill:#000000;stroke:#000000;stroke-width:3.7;stroke-linecap:butt;stroke-linejoin:round;stroke-opacity:1;stroke-miterlimit:4;stroke-dasharray:none"
       d="m 55,32.362183 c -10,35 -25,40 -25,50 0,10 5.355339,25.254827 23.790623,25.254827 C 72.225907,107.61701 80,92.362183 80,82.362183 c 0,-10 -15,-15 -25,-50 z"
       id="path3006"
       inkscape:connector-curvature="0"
       sodipodi:nodetypes="czzzc" />
    <path
       style="fill:#ffffff;stroke:#000000;stroke-width:1px;stroke-linecap:butt;stroke-linejoin:miter;stroke-opacity:1"
       d="m 46.711902,68.575386 c -4.70494,1.249464 -15,15 -10,15 5,0 10,5 10,5 -1.6011,-6.345755 4.41534,-10.613999 10,-15 0,0 -5.29506,-6.249464 -10,-5 z"
       id="path3776"
       inkscape:connector-curvature="0"
       sodipodi:nodetypes="zzccz" />
    <path
       style="fill:none;stroke:#000000;stroke-width:4.319;stroke-linecap:butt;stroke-linejoin:miter;stroke-miterlimit:4;stroke-opacity:1;stroke-dasharray:none"
       d="m 140.61815,83.142861 c 0,0 10.6138,-9.86109 20.06933,-9.708785 17.76848,0.286206 17.35284,19.13136 35.12131,19.417571 18.91107,0.304603 21.21711,-19.417571 40.13865,-19.417571 18.92154,0 21.2171,19.417571 40.13864,19.417571 9.46077,0 20.06933,-9.708786 20.06933,-9.708786"
       id="path3780"
       inkscape:connector-curvature="0"
       sodipodi:nodetypes="caaaac" />
    <path
       style="fill:none;stroke:#000000;stroke-width:4.319;stroke-linecap:butt;stroke-linejoin:miter;stroke-miterlimit:4;stroke-opacity:1;stroke-dasharray:none"
       d="m 153.97268,88.56225 c 0,0 10.6138,-9.861089 20.06933,-9.708784 17.76847,0.286206 17.35284,19.13136 35.12131,19.417571 18.91106,0.304603 21.21711,-19.417571 40.13865,-19.417571 18.92153,0 21.2171,19.417571 40.13864,19.417571 9.46077,0 20.06933,-9.708787 20.06933,-9.708787"
       id="path3780-5"
       inkscape:connector-curvature="0"
       sodipodi:nodetypes="caaaac" />
    <path
       style="fill:none;stroke:#000000;stroke-width:4.319;stroke-linecap:butt;stroke-linejoin:miter;stroke-miterlimit:4;stroke-opacity:1;stroke-dasharray:none"
       d="m 167.88393,94.110016 c 0,0 10.6138,-9.86109 20.06933,-9.708785 17.76847,0.286206 17.35284,19.131359 35.12131,19.417569 18.91106,0.30461 21.21711,-19.417569 40.13865,-19.417569 18.92153,0 21.2171,19.417569 40.13864,19.417569 9.46077,0 20.06933,-9.708784 20.06933,-9.708784"
       id="path3780-3"
       inkscape:connector-curvature="0"
       sodipodi:nodetypes="caaaac" />
    <path
       style="fill:none;stroke:#000000;stroke-width:3.58400011;stroke-linecap:butt;stroke-linejoin:miter;stroke-miterlimit:4;stroke-opacity:1;stroke-dasharray:none"
       d="m 185.73773,125.20138 0,-77.092101 -25.69737,0 38.54605,-32.121711 38.54605,32.121711 -25.69736,0 0,77.092101 25.69736,0 -38.54605,32.12171 -38.54605,-32.12171 z"
       id="path3807"
       inkscape:connector-curvature="0"
       sodipodi:nodetypes="ccccccccccc" />
    <g
       id="g3986">
      <rect
         style="opacity:1;fill:#656565;fill-opacity:1;stroke:none;stroke-width:3.4000001;stroke-linecap:round;stroke-linejoin:round;stroke-miterlimit:4;stroke-dasharray:none;stroke-dashoffset:0;stroke-opacity:1"
         id="rect4171-0"
         width="50"
         height="30.000034"
         x="180"
         y="567.36218" />
      <g
         id="g3969">
        <path
           sodipodi:type="arc"
           style="fill:#000000;fill-opacity:1;stroke:#000000;stroke-width:3.58400011;stroke-linejoin:round;stroke-miterlimit:4;stroke-opacity:1;stroke-dasharray:none"
           id="path3819"
           sodipodi:cx="70"
           sodipodi:cy="187.36218"
           sodipodi:rx="35"
           sodipodi:ry="35"
           d="m 105,187.36218 a 35,35 0 0 1 -35,35 35,35 0 0 1 -35,-35 35,35 0 0 1 35,-35 35,35 0 0 1 35,35 z"
           transform="translate(5.3571428,58.571429)" />
        <g
           id="g3961">
          <path
             inkscape:connector-curvature="0"
             id="path3821"
             d="m 75,182.36218 0,20"
             style="fill:none;stroke:#000000;stroke-width:6.4000001;stroke-linecap:round;stroke-linejoin:miter;stroke-miterlimit:4;stroke-opacity:1;stroke-dasharray:none" />
          <path
             inkscape:connector-curvature="0"
             id="path3821-7"
             d="m 75,290.21932 0,20"
             style="fill:none;stroke:#000000;stroke-width:6.4000001;stroke-linecap:round;stroke-linejoin:miter;stroke-miterlimit:4;stroke-opacity:1;stroke-dasharray:none" />
          <path
             style="fill:none;stroke:#000000;stroke-width:6.4000001;stroke-linecap:round;stroke-linejoin:miter;stroke-miterlimit:4;stroke-opacity:1;stroke-dasharray:none"
             d="m 19.636234,214.32646 17.320508,10"
             id="path3862"
             inkscape:connector-curvature="0" />
          <path
             style="fill:none;stroke:#000000;stroke-width:6.4000001;stroke-linecap:round;stroke-linejoin:miter;stroke-miterlimit:4;stroke-opacity:1;stroke-dasharray:none"
             d="m 113.04326,268.25503 17.32051,10"
             id="path3864"
             inkscape:connector-curvature="0" />
          <path
             inkscape:connector-curvature="0"
             id="path3866"
             d="m 19.636235,278.25503 17.320508,-10"
             style="fill:none;stroke:#000000;stroke-width:6.4000001;stroke-linecap:round;stroke-linejoin:miter;stroke-miterlimit:4;stroke-opacity:1;stroke-dasharray:none" />
          <path
             inkscape:connector-curvature="0"
             id="path3868"
             d="m 113.04326,224.32646 17.32051,-10"
             style="fill:none;stroke:#000000;stroke-width:6.4000001;stroke-linecap:round;stroke-linejoin:miter;stroke-miterlimit:4;stroke-opacity:1;stroke-dasharray:none" />
        </g>
      </g>
      <g
         id="g3979">
        <path
           style="fill:none;stroke:#000000;stroke-width:7.0999999;stroke-linecap:round;stroke-linejoin:miter;stroke-miterlimit:4;stroke-opacity:1;stroke-dasharray:14.2, 28.4;stroke-dashoffset:0"
           d="m 194.28571,244.50504 -85,125"
           id="path3884"
           inkscape:connector-curvature="0" />
        <path
           style="fill:none;stroke:#000000;stroke-width:7.0999999;stroke-linecap:round;stroke-linejoin:miter;stroke-miterlimit:4;stroke-opacity:1;stroke-dasharray:14.2, 28.4;stroke-dashoffset:0"
           d="m 212.82124,240.1624 -85,125"
           id="path3884-5"
           inkscape:connector-curvature="0" />
        <path
           style="fill:none;stroke:#000000;stroke-width:7.0999999;stroke-linecap:round;stroke-linejoin:miter;stroke-miterlimit:4;stroke-opacity:1;stroke-dasharray:14.2, 28.4;stroke-dashoffset:0"
           d="m 213.12327,258.90099 -85,125"
           id="path3884-2"
           inkscape:connector-curvature="0" />
        <path
           style="fill:none;stroke:#000000;stroke-width:7.0999999;stroke-linecap:round;stroke-linejoin:miter;stroke-miterlimit:4;stroke-opacity:1;stroke-dasharray:14.2, 28.4;stroke-dashoffset:0"
           d="m 236.40754,248.54565 -85,125"
           id="path3884-9"
           inkscape:connector-curvature="0" />
        <path
           style="fill:none;stroke:#000000;stroke-width:7.0999999;stroke-linecap:round;stroke-linejoin:miter;stroke-miterlimit:4;stroke-opacity:1;stroke-dasharray:14.2, 28.4;stroke-dashoffset:0"
           d="m 241.60804,265.97206 -85,125"
           id="path3884-7"
           inkscape:connector-curvature="0" />
      </g>
      <use
         x="0"
         y="0"
         xlink:href="#g3969"
         id="use4014"
         transform="translate(329.54824,-14.835395)"
         width="744.09448"
         height="1052.3622" />
      <path
         style="fill:#000000;fill-opacity:1;stroke:#000000;stroke-width:7.0999999;stroke-linecap:round;stroke-linejoin:round;stroke-miterlimit:4;stroke-opacity:1;stroke-dasharray:none;stroke-dashoffset:0"
         d="m 589.06344,183.95535 c -3.46775,0 -6.83723,0.35694 -10.09375,1.0625 21.37557,4.63457 37.40625,23.67418 37.40625,46.4375 0,22.76332 -16.03068,41.77168 -37.40625,46.40625 3.25652,0.70556 6.626,1.09375 10.09375,1.09375 26.23353,0 47.5,-21.26647 47.5,-47.5 0,-26.23353 -21.26647,-47.5 -47.5,-47.5 z"
         id="path4016"
         inkscape:connector-curvature="0" />
      <path
         style="fill:none;stroke:#000000;stroke-width:5.1;stroke-linecap:butt;stroke-linejoin:miter;stroke-opacity:1;stroke-miterlimit:4;stroke-dasharray:10.2,10.2;stroke-dashoffset:0"
         d="m 440,292.36218 65,95 70,-95"
         id="path4025"
         inkscape:connector-curvature="0" />
      <path
         style="fill:none;fill-rule:evenodd;stroke:#000000;stroke-width:2.80700541;stroke-linecap:butt;stroke-linejoin:miter;stroke-miterlimit:4;stroke-dasharray:none;stroke-opacity:1"
         d="m 104.66045,597.62168 200.67929,0 -22.85304,-57.73976 -152.74134,0 z"
         id="path4169"
         inkscape:connector-curvature="0" />
      <rect
         style="opacity:1;fill:#000000;fill-opacity:1;stroke:none;stroke-width:3.4000001;stroke-linecap:round;stroke-linejoin:round;stroke-miterlimit:4;stroke-dasharray:none;stroke-dashoffset:0;stroke-opacity:1"
         id="rect4171"
         width="50"
         height="75"
         x="180"
         y="492.36221" />
    </g>
  </g>
</svg>
